<?xml version="1.0" encoding="utf-8"?>
<!-- Generator: Adobe Illustrator 28.2.0, SVG Export Plug-In . SVG Version: 6.00 Build 0)  -->
<svg version="1.1" id="Ebene_1" xmlns="http://www.w3.org/2000/svg" xmlns:xlink="http://www.w3.org/1999/xlink" x="0px" y="0px"
	 viewBox="0 0 85.04 85.04" style="enable-background:new 0 0 85.04 85.04;" xml:space="preserve">
<style type="text/css">
	.st0{fill:#FFFEF3;}
</style>
<path class="st0" d="M41.45,73.67c-0.52-0.04-1.05-0.08-1.57-0.12c-4.1-0.33-8.02-1.32-11.61-3.4c-3.75-2.17-6.6-5.22-8.68-9
	c-1.72-3.12-2.78-6.47-3.41-9.97c-0.63-3.47-0.87-6.97-0.73-10.49c0.18-4.79,0.92-9.47,2.74-13.93c1.53-3.75,3.74-7.03,6.84-9.67
	c2.5-2.13,5.36-3.61,8.5-4.53c4.1-1.2,8.29-1.51,12.54-1.11c3.77,0.35,7.37,1.28,10.71,3.08c4.59,2.48,7.91,6.18,10.21,10.83
	c0.85,1.73,1.52,3.54,2.03,5.4c0.02,0.07,0.03,0.13,0.05,0.22c-1.74,0.46-3.46,0.92-5.22,1.39c-0.03-0.11-0.07-0.21-0.1-0.31
	c-0.76-2.63-1.84-5.11-3.45-7.34c-2.53-3.5-5.93-5.75-10.05-6.93c-3.41-0.97-6.88-1.2-10.4-0.87c-2.41,0.23-4.74,0.75-6.97,1.71
	c-4,1.72-6.91,4.58-8.88,8.44c-1.29,2.52-2.08,5.21-2.56,7.99c-0.46,2.66-0.66,5.34-0.61,8.03c0.07,4,0.56,7.93,1.88,11.73
	c0.99,2.83,2.41,5.41,4.5,7.58c2.4,2.49,5.32,4.07,8.65,4.9c4.54,1.14,9.11,1.17,13.65,0.07c3.95-0.96,7.21-3.06,9.53-6.42
	c2.24-3.24,2.7-6.78,1.26-10.48c-0.78-2.01-2.25-3.44-4.06-4.56c-0.02-0.02-0.05-0.02-0.11-0.04c-0.1,0.53-0.18,1.06-0.28,1.58
	c-0.51,2.56-1.43,4.95-3.09,6.99c-1.88,2.31-4.33,3.63-7.22,4.16c-2.34,0.43-4.67,0.37-6.96-0.3c-2.75-0.8-5.02-2.28-6.52-4.77
	c-1.2-1.99-1.59-4.16-1.26-6.44c0.52-3.7,2.71-6.16,5.98-7.74c1.94-0.94,4.02-1.37,6.17-1.51c2.06-0.13,4.12-0.1,6.17,0.12
	c0.54,0.06,1.08,0.14,1.71,0.23c-0.18-0.68-0.31-1.34-0.52-1.96c-0.99-2.94-2.99-4.52-6.27-4.85c-1.53-0.15-3.04-0.05-4.5,0.48
	c-1.45,0.52-2.62,1.4-3.51,2.65c-0.05,0.07-0.11,0.15-0.17,0.23c-1.49-1.02-2.97-2.04-4.46-3.06c0.69-1.06,1.5-1.98,2.44-2.77
	c2.14-1.8,4.63-2.76,7.41-3.01c2.28-0.21,4.52-0.03,6.7,0.73c3.38,1.17,5.68,3.48,7.06,6.74c0.83,1.95,1.22,4.01,1.35,6.12
	c0.02,0.26,0.11,0.38,0.35,0.49c2.54,1.13,4.76,2.7,6.52,4.87c1.65,2.03,2.64,4.36,3.05,6.94c0.6,3.76,0.03,7.34-1.76,10.7
	c-1.37,2.56-3.31,4.62-5.6,6.38c-2.83,2.18-6.03,3.51-9.52,4.19c-1.62,0.31-3.25,0.5-4.89,0.56c-0.13,0.01-0.26,0.03-0.39,0.05
	C43.2,73.67,42.33,73.67,41.45,73.67z M50.9,43.87c-0.07-0.03-0.1-0.04-0.12-0.05c-2.89-0.59-5.8-0.71-8.72-0.36
	c-1.4,0.17-2.74,0.57-3.93,1.37c-1.81,1.24-2.53,3.3-1.79,5.22c0.53,1.37,1.6,2.19,2.92,2.71c1.64,0.66,3.34,0.73,5.06,0.48
	c1.76-0.26,3.28-0.99,4.37-2.44C50.25,48.76,50.64,46.35,50.9,43.87z"/>
</svg>
