<?xml version="1.0" encoding="UTF-8"?>
<svg id="Icon_Tiktok" data-name="Icon Tiktok" xmlns="http://www.w3.org/2000/svg" viewBox="0 0 24 24">
  <defs>
    <style>
      .cls-1 {
        fill: #fffdf2;
      }
    </style>
  </defs>
  <path class="cls-1" d="m12,0C5.37,0,0,5.37,0,12s5.37,12,12,12,12-5.37,12-12S18.63,0,12,0Zm7.29,10.27c-1.5,0-2.88-.48-4.01-1.29v5.86c0,2.93-2.38,5.31-5.31,5.31-1.13,0-2.18-.36-3.04-.96-1.37-.96-2.27-2.55-2.27-4.35,0-2.93,2.38-5.31,5.31-5.31.24,0,.48.02.72.05v2.94c-.23-.07-.47-.11-.72-.11-1.34,0-2.42,1.09-2.42,2.42,0,.93.53,1.74,1.3,2.15.34.18.72.28,1.12.28,1.31,0,2.37-1.04,2.42-2.33V3.37h2.89c0,.25.02.49.07.73.2,1.1.86,2.04,1.76,2.63h0c.63.41,1.38.65,2.19.65v2.88Z"/>
</svg>