<?xml version="1.0" encoding="utf-8"?>
<!-- Generator: Adobe Illustrator 28.2.0, SVG Export Plug-In . SVG Version: 6.00 Build 0)  -->
<svg version="1.1" id="Ebene_1" xmlns="http://www.w3.org/2000/svg" xmlns:xlink="http://www.w3.org/1999/xlink" x="0px" y="0px"
	 viewBox="0 0 85.04 85.04" style="enable-background:new 0 0 85.04 85.04;" xml:space="preserve">
<style type="text/css">
	.st0{fill:#FFFEF3;}
</style>
<g>
	<path class="st0" d="M11.07,73.6c0.41-1.49,0.8-2.93,1.19-4.36c1.03-3.77,2.07-7.55,3.1-11.33c0.05-0.17,0.01-0.41-0.07-0.56
		c-1.77-3.14-2.95-6.5-3.54-10.05c-0.52-3.14-0.56-6.28-0.11-9.43c0.87-6.03,3.29-11.35,7.3-15.93c4.53-5.18,10.17-8.5,16.9-9.95
		c3.4-0.73,6.83-0.86,10.27-0.42c11.52,1.48,21.15,9.2,25.13,20.12c1.48,4.06,2.05,8.27,1.75,12.58c-0.5,7.15-3.16,13.39-7.97,18.69
		c-4.61,5.07-10.3,8.26-17.04,9.57c-3.03,0.59-6.07,0.7-9.14,0.36c-3.89-0.43-7.57-1.55-11.03-3.38c-0.28-0.15-0.52-0.16-0.82-0.08
		c-5.22,1.37-10.43,2.74-15.65,4.11C11.28,73.56,11.21,73.57,11.07,73.6z M18.45,66.28c0.17-0.03,0.27-0.04,0.37-0.07
		c3.02-0.79,6.04-1.59,9.06-2.37c0.17-0.04,0.4-0.01,0.55,0.08c0.95,0.5,1.87,1.06,2.83,1.52c2.63,1.27,5.41,2.03,8.31,2.31
		c1.28,0.12,2.58,0.14,3.86,0.07c1.4-0.08,2.81-0.22,4.17-0.51c4.11-0.87,7.79-2.68,11.02-5.38c2.16-1.81,4-3.91,5.46-6.32
		c1.53-2.51,2.62-5.21,3.22-8.1c0.48-2.32,0.65-4.64,0.49-7c-0.13-1.96-0.46-3.87-1.02-5.74c-1.01-3.33-2.63-6.34-4.85-9.03
		c-1.39-1.68-2.99-3.16-4.77-4.43c-4.16-2.98-8.8-4.55-13.9-4.79c-2.26-0.1-4.5,0.12-6.72,0.62c-3.78,0.85-7.18,2.48-10.22,4.87
		c-1.63,1.28-3.08,2.74-4.36,4.38c-1.02,1.31-1.92,2.7-2.67,4.18c-1.01,2-1.81,4.09-2.21,6.3c-0.24,1.34-0.46,2.7-0.53,4.06
		c-0.12,2.15,0.02,4.29,0.47,6.41c0.37,1.71,0.88,3.37,1.56,4.98c0.64,1.51,1.45,2.91,2.31,4.3c0.08,0.12,0.1,0.32,0.07,0.46
		c-0.41,1.52-0.84,3.04-1.26,4.57C19.3,63.16,18.89,64.69,18.45,66.28z"/>
	<path class="st0" d="M32.07,27.94c0.47,0.04,0.84,0.03,1.2,0.1c0.6,0.12,0.9,0.61,1.12,1.11c0.58,1.33,1.12,2.67,1.67,4.01
		c0.26,0.61,0.51,1.23,0.77,1.84c0.23,0.53,0.23,1.04-0.04,1.58c-0.47,0.94-1.17,1.68-1.86,2.44c-0.63,0.7-0.67,0.96-0.18,1.77
		c1.81,2.98,4.07,5.54,7.1,7.32c1.15,0.68,2.39,1.21,3.6,1.79c0.53,0.26,1,0.11,1.37-0.33c0.81-0.99,1.62-1.97,2.41-2.97
		c0.47-0.59,0.71-0.75,1.43-0.49c0.82,0.29,1.61,0.65,2.39,1.02c1.32,0.62,2.62,1.3,3.95,1.92c0.59,0.28,0.85,0.66,0.82,1.34
		c-0.05,1.02-0.23,2.01-0.61,2.95c-0.35,0.88-1.06,1.49-1.81,2.03c-0.97,0.71-2.02,1.28-3.21,1.49c-1.41,0.26-2.82,0.17-4.21-0.2
		c-2.66-0.71-5.26-1.57-7.66-2.91c-2.61-1.46-4.85-3.38-6.86-5.57c-1.73-1.88-3.23-3.94-4.63-6.07c-0.96-1.47-1.71-3.05-2.09-4.78
		c-0.45-2.04-0.3-4.04,0.66-5.92c0.6-1.19,1.38-2.26,2.52-3.03c0.47-0.32,0.98-0.4,1.52-0.41C31.69,27.94,31.93,27.94,32.07,27.94z"
		/>
</g>
</svg>
