<?xml version="1.0" encoding="utf-8"?>
<!-- Generator: Adobe Illustrator 28.2.0, SVG Export Plug-In . SVG Version: 6.00 Build 0)  -->
<svg version="1.1" id="Ebene_1" xmlns="http://www.w3.org/2000/svg" xmlns:xlink="http://www.w3.org/1999/xlink" x="0px" y="0px"
	 viewBox="0 0 85.04 85.04" style="enable-background:new 0 0 85.04 85.04;" xml:space="preserve">
<style type="text/css">
	.st0{fill:#FFFEF3;}
</style>
<g>
	<path class="st0" d="M73.83,71.01c-0.21,0-0.32,0-0.43,0c-6.24,0-12.48,0-18.72,0.01c-0.27,0-0.43-0.1-0.59-0.31
		c-4.94-6.47-9.88-12.93-14.82-19.39c-0.08-0.11-0.17-0.21-0.28-0.35c-0.11,0.11-0.19,0.2-0.27,0.29
		c-5.68,6.49-11.37,12.98-17.04,19.48c-0.17,0.2-0.35,0.28-0.61,0.28c-2.94-0.01-5.87-0.01-8.81-0.01c-0.12,0-0.25,0-0.46,0
		c0.12-0.15,0.19-0.25,0.27-0.34c7.34-8.39,14.69-16.79,22.03-25.18c0.05-0.06,0.1-0.13,0.16-0.18c0.2-0.17,0.18-0.32,0.02-0.52
		c-1.15-1.48-2.28-2.97-3.42-4.46c-6.69-8.75-13.38-17.5-20.08-26.25c-0.07-0.09-0.13-0.18-0.24-0.32c0.14-0.01,0.23-0.03,0.32-0.03
		c6.46,0,12.91,0,19.37-0.01c0.22,0,0.35,0.09,0.48,0.25c4.46,5.91,8.93,11.81,13.4,17.72c0.08,0.11,0.17,0.21,0.28,0.35
		c0.12-0.13,0.23-0.24,0.32-0.35c5.14-5.87,10.28-11.75,15.41-17.63c0.21-0.24,0.42-0.35,0.75-0.35c2.91,0.01,5.83,0.01,8.74,0.01
		c0.12,0,0.24,0,0.45,0c-0.14,0.17-0.23,0.29-0.33,0.39c-6.83,7.81-13.66,15.62-20.5,23.43c-0.39,0.44-0.39,0.44-0.03,0.91
		c8.1,10.71,16.2,21.42,24.3,32.12C73.59,70.69,73.68,70.81,73.83,71.01z M62.39,65.21c-0.12-0.17-0.18-0.28-0.26-0.38
		C50.7,49.72,39.27,34.6,27.84,19.48c-0.16-0.21-0.32-0.31-0.59-0.3c-1.68,0.01-3.36,0.01-5.04,0.01c-0.11,0-0.23,0.02-0.4,0.03
		c0.11,0.15,0.17,0.25,0.23,0.34c11.58,15.14,23.16,30.28,34.73,45.42c0.15,0.19,0.3,0.28,0.54,0.27c1.55-0.01,3.11,0,4.66-0.01
		C62.08,65.24,62.19,65.23,62.39,65.21z"/>
</g>
</svg>
