<?xml version="1.0" encoding="utf-8"?>
<!-- Generator: Adobe Illustrator 28.2.0, SVG Export Plug-In . SVG Version: 6.00 Build 0)  -->
<svg version="1.1" id="Ebene_1" xmlns="http://www.w3.org/2000/svg" xmlns:xlink="http://www.w3.org/1999/xlink" x="0px" y="0px"
	 viewBox="0 0 85.04 85.04" style="enable-background:new 0 0 85.04 85.04;" xml:space="preserve">
<style type="text/css">
	.st0{fill:#FFFEF3;}
</style>
<g>
	<path class="st0" d="M77.97,39.52c0,1.84,0,3.68,0,5.52c-0.03,0.41-0.09,0.82-0.1,1.22c-0.14,4.13-0.49,8.24-1.25,12.32
		c-0.72,3.87-3.26,6.53-7.13,7.34c-1.15,0.24-2.33,0.44-3.51,0.51c-5.08,0.3-10.16,0.68-15.24,0.77c-6.36,0.11-12.73,0.03-19.1-0.1
		c-5.25-0.11-10.51-0.34-15.72-1.09c-3.6-0.52-6.58-3.12-7.39-6.67c-0.39-1.73-0.67-3.5-0.88-5.27C7.13,49.54,7,44.98,7.1,40.41
		c0.1-4.68,0.35-9.35,1.22-13.96c0.66-3.52,2.67-5.93,6.06-7.04c1.36-0.44,2.83-0.57,4.26-0.73c5.94-0.66,11.91-0.88,17.88-0.9
		c6.78-0.01,13.56,0.05,20.34,0.24c3.93,0.11,7.87,0.46,11.79,0.88c4.08,0.44,6.98,3.21,7.88,7.2c0.71,3.14,1.02,6.33,1.23,9.54
		C77.83,36.94,77.9,38.23,77.97,39.52z M35.66,53.12c6.21-3.56,12.31-7.07,18.49-10.62c-6.21-3.56-12.32-7.07-18.49-10.61
		C35.66,39.01,35.66,46.01,35.66,53.12z"/>
</g>
</svg>
